<svg width="617" height="383" viewBox="0 0 617 383" fill="none" xmlns="http://www.w3.org/2000/svg">
<path d="M19.7482 175.234C18.4525 175.234 17.1694 174.979 15.9723 174.483C14.7752 173.987 13.6875 173.259 12.7714 172.343C11.8552 171.426 11.1286 170.338 10.6329 169.14C10.1372 167.942 9.88222 166.658 9.8825 165.362C9.87862 167.982 8.83571 170.493 6.98281 172.344C5.1299 174.195 2.61846 175.234 0 175.234C2.62064 175.234 5.13397 176.276 6.98724 178.129C8.84051 179.983 9.88194 182.497 9.8825 185.119C9.88139 182.5 10.92 179.987 12.77 178.133C14.62 176.28 17.13 175.237 19.7482 175.234ZM616.507 12.0194C615.211 12.0202 613.927 11.7655 612.73 11.2696C611.532 10.7738 610.444 10.0466 609.527 9.12976C608.611 8.21288 607.884 7.12424 607.388 5.92612C606.893 4.72799 606.638 3.44389 606.639 2.14722C606.635 4.76647 605.592 7.27715 603.74 9.12806C601.888 10.979 599.377 12.0189 596.759 12.0194C598.056 12.0191 599.341 12.2747 600.54 12.7715C601.739 13.2683 602.829 13.9966 603.746 14.9147C604.664 15.8329 605.392 16.9229 605.888 18.1226C606.384 19.3222 606.64 20.6079 606.639 21.9063C606.64 19.287 607.68 16.7751 609.529 14.9216C611.379 13.0681 613.889 12.0244 616.507 12.0194ZM616.507 205.299C615.211 205.3 613.927 205.045 612.73 204.55C611.533 204.054 610.445 203.327 609.528 202.41C608.612 201.494 607.885 200.405 607.389 199.207C606.893 198.01 606.638 196.726 606.639 195.429C606.636 198.048 605.593 200.559 603.74 202.41C601.888 204.261 599.377 205.3 596.759 205.299C598.056 205.299 599.341 205.555 600.54 206.051C601.739 206.548 602.829 207.276 603.746 208.195C604.664 209.113 605.392 210.203 605.888 211.402C606.384 212.602 606.64 213.888 606.639 215.186C606.64 212.567 607.68 210.055 609.529 208.201C611.379 206.348 613.889 205.304 616.507 205.299ZM605.345 225.492C604.782 225.492 604.224 225.381 603.703 225.166C603.182 224.95 602.709 224.634 602.311 224.235C601.912 223.837 601.596 223.364 601.381 222.843C601.165 222.322 601.055 221.764 601.055 221.2C601.053 222.339 600.599 223.43 599.794 224.235C598.988 225.039 597.897 225.491 596.759 225.492C597.898 225.492 598.991 225.945 599.797 226.751C600.602 227.557 601.055 228.65 601.055 229.79C601.054 228.651 601.506 227.558 602.31 226.752C603.115 225.946 604.206 225.493 605.345 225.492Z" fill="#02A594"/>
<path d="M532.359 6.4392C531.795 6.43976 531.237 6.32911 530.717 6.11361C530.196 5.89812 529.723 5.582 529.324 5.18334C528.926 4.78468 528.61 4.31131 528.394 3.79034C528.179 3.26936 528.068 2.711 528.069 2.14722C528.069 2.7113 527.957 3.2698 527.741 3.79081C527.525 4.31182 527.208 4.78514 526.809 5.18371C526.41 5.58229 525.937 5.89832 525.416 6.11374C524.895 6.32916 524.336 6.43975 523.772 6.4392C524.337 6.43838 524.896 6.54898 525.418 6.7647C525.939 6.98041 526.413 7.297 526.812 7.69629C527.211 8.09559 527.528 8.56976 527.743 9.09162C527.959 9.61348 528.07 10.1728 528.069 10.7375C528.069 9.59876 528.521 8.50675 529.326 7.70097C530.13 6.89519 531.221 6.44142 532.359 6.4392Z" fill="#075DA2"/>
<path d="M466.242 67.855C463.626 67.855 461.116 66.8151 459.266 64.9641C457.416 63.1131 456.377 60.6026 456.377 57.9849C456.372 60.6041 455.329 63.1146 453.476 64.9651C451.623 66.8156 449.112 67.855 446.494 67.855C447.792 67.8544 449.077 68.1098 450.277 68.6064C451.476 69.1031 452.566 69.8314 453.483 70.7495C454.401 71.6677 455.129 72.7579 455.626 73.9577C456.122 75.1574 456.377 76.4433 456.377 77.7418C456.375 75.1221 457.413 72.6089 459.263 70.7549C461.113 68.9008 463.624 67.8577 466.242 67.855Z" fill="#02A594"/>
<path d="M574.964 95.7517C573.668 95.7526 572.385 95.4979 571.188 95.0022C569.99 94.5065 568.902 93.7795 567.986 92.8628C567.069 91.9462 566.342 90.8578 565.847 89.6599C565.351 88.462 565.096 87.1781 565.096 85.8816C565.096 87.1789 564.84 88.4633 564.343 89.6615C563.846 90.8597 563.118 91.9482 562.2 92.8648C561.283 93.7814 560.194 94.5082 558.995 95.0035C557.797 95.4989 556.513 95.7531 555.216 95.7517C556.514 95.7515 557.799 96.007 558.998 96.5038C560.197 97.0006 561.286 97.7289 562.204 98.6471C563.121 99.5652 563.849 100.655 564.346 101.855C564.842 103.055 565.097 104.34 565.096 105.639C565.098 103.019 566.137 100.507 567.987 98.6539C569.837 96.8005 572.346 95.7567 574.964 95.7517ZM43.3612 9.87011C40.7444 9.87011 38.2348 8.83029 36.3843 6.97934C34.5338 5.1284 33.4939 2.61791 33.4933 0C33.4889 2.61925 32.4458 5.12972 30.5929 6.98024C28.7401 8.83076 26.2289 9.87011 23.6108 9.87011C26.2318 9.87011 28.7455 10.9118 30.5988 12.7659C32.4521 14.62 33.4933 17.1348 33.4933 19.757C33.4933 17.1377 34.5322 14.6255 36.3819 12.7718C38.2316 10.9182 40.741 9.87455 43.3591 9.87011H43.3612Z" fill="#075FA1"/>
<path d="M526.115 344.438C524.978 344.437 523.887 343.985 523.082 343.18C522.278 342.375 521.826 341.284 521.825 340.146C521.823 341.285 521.369 342.376 520.564 343.181C519.759 343.985 518.667 344.437 517.529 344.438C518.668 344.438 519.761 344.891 520.567 345.697C521.373 346.503 521.825 347.596 521.825 348.736C521.826 347.598 522.278 346.506 523.082 345.7C523.886 344.894 524.977 344.44 526.115 344.438ZM15.2403 377.953C14.1026 377.952 13.0118 377.5 12.2073 376.695C11.4029 375.89 10.9507 374.799 10.9502 373.661C10.948 374.799 10.4944 375.891 9.68898 376.695C8.88355 377.5 7.79202 377.952 6.65381 377.953C7.21809 377.952 7.7769 378.063 8.29828 378.279C8.81967 378.495 9.29341 378.812 9.69242 379.211C10.0914 379.61 10.4079 380.084 10.6237 380.606C10.8395 381.127 10.9505 381.687 10.9502 382.251C10.9502 381.112 11.402 380.02 12.2063 379.214C13.0107 378.408 14.1019 377.954 15.2403 377.953Z" fill="#312E81"/>
</svg>
